Coordinates
version=1
nRows=24
nColumns=22
inDegrees=yes

Units are S.I. units (second, meters, Newtons, ...)
If the header above contains a line with 'inDegrees', this indicates whether rotational values are in degrees (yes) or radians (no).

endheader
time	pelvis_tilt	pelvis_list	pelvis_rotation	pelvis_tx	pelvis_ty	pelvis_tz	hip_flexion_r	hip_adduction_r	hip_rotation_r	knee_angle_r	ankle_angle_r	subtalar_angle_r	hip_flexion_l	hip_adduction_l	hip_rotation_l	knee_angle_l	ankle_angle_l	subtalar_angle_l	lumbar_extension	lumbar_bending	lumbar_rotation
      0.01000000	      0.81458545	     -1.51073849	      2.06751438	      1.04831476	      0.93700408	     -0.02679898	      1.45013041	      2.53534085	    -13.25009328	    -14.37890897	     10.76797083	      1.47556571	      3.81630662	     -2.87675721	     -5.80388388	    -19.45708978	     12.47586623	     -0.78302232	     -7.11162412	     -0.23799534	     -6.24151863
      0.02000000	      0.82457614	     -1.50921386	      2.08600166	      1.04828349	      0.93700241	     -0.02667474	      1.43150062	      2.54401401	    -13.25834782	    -14.36242120	     10.76491235	      1.46962455	      3.82012456	     -2.88370531	     -5.77086694	    -19.47542297	     12.47613257	     -0.80845969	     -7.13009522	     -0.24328268	     -6.22753499
      0.03000000	      0.82524192	     -1.50526157	      2.09180727	      1.04825045	      0.93698542	     -0.02649973	      1.43102191	      2.55100424	    -13.25964126	    -14.35936426	     10.76510161	      1.46919056	      3.82332330	     -2.89204570	     -5.76662092	    -19.47487512	     12.47684056	     -0.81111371	     -7.13792482	     -0.25379485	     -6.22720664
      0.04000000	      0.83881937	     -1.50092732	      2.11365142	      1.04818930	      0.93698442	     -0.02634573	      1.40886852	      2.55904672	    -13.26779102	    -14.34114428	     10.76712350	      1.46630429	      3.83523152	     -2.89881701	     -5.72759482	    -19.51093087	     12.47869198	     -0.82231049	     -7.16561518	     -0.26351410	     -6.21096914
      0.05000000	      0.85405291	     -1.50466558	      2.13259095	      1.04811271	      0.93698680	     -0.02617929	      1.38947799	      2.57517885	    -13.29436735	    -14.32715863	     10.76847946	      1.46245203	      3.84068123	     -2.91474246	     -5.69018904	    -19.53627101	     12.48427617	     -0.83358719	     -7.19874002	     -0.26317807	     -6.20878128
      0.06000000	      0.86405269	     -1.50507518	      2.14804423	      1.04804830	      0.93698201	     -0.02600115	      1.38020002	      2.58728534	    -13.31347096	    -14.32554165	     10.76835595	      1.46111130	      3.84896276	     -2.92918654	     -5.66887570	    -19.55848407	     12.48741019	     -0.83660794	     -7.22107913	     -0.27183947	     -6.19342979
      0.07000000	      0.87440853	     -1.50961144	      2.15506935	      1.04795134	      0.93697613	     -0.02582262	      1.37477480	      2.60171783	    -13.34177624	    -14.32536118	     10.76943213	      1.46030709	      3.86294520	     -2.94695802	     -5.64548500	    -19.59005418	     12.49117840	     -0.83699014	     -7.25045159	     -0.27462324	     -6.17271699
      0.08000000	      0.88453204	     -1.51851189	      2.16107481	      1.04784418	      0.93696930	     -0.02564976	      1.37193097	      2.61948652	    -13.37722986	    -14.32794646	     10.77025611	      1.45966103	      3.88178169	     -2.96957195	     -5.62388353	    -19.62885915	     12.49742105	     -0.83485140	     -7.27981560	     -0.27381542	     -6.14820121
      0.09000000	      0.89051748	     -1.54031792	      2.16995675	      1.04772244	      0.93695010	     -0.02550042	      1.37554342	      2.64805809	    -13.43362676	    -14.33072712	     10.76832572	      1.45779861	      3.91298134	     -3.00635437	     -5.60708493	    -19.67848985	     12.51916577	     -0.82564443	     -7.30603430	     -0.25365374	     -6.14198744
      0.10000000	      0.89552058	     -1.55118931	      2.17185009	      1.04760170	      0.93693058	     -0.02533196	      1.38002212	      2.66709089	    -13.46582524	    -14.33363584	     10.76718885	      1.45642839	      3.94335044	     -3.03056820	     -5.58324864	    -19.72792652	     12.52774905	     -0.81898378	     -7.33081294	     -0.25498509	     -6.11314339
      0.11000000	      0.89333751	     -1.58269152	      2.19010849	      1.04748741	      0.93688804	     -0.02518304	      1.39648318	      2.70677152	    -13.52552022	    -14.34612511	     10.76496238	      1.45131993	      3.99544642	     -3.08097081	     -5.56485351	    -19.79879741	     12.55818057	     -0.79970401	     -7.34259381	     -0.23288434	     -6.11184710
      0.12000000	      0.89824053	     -1.59044078	      2.19387422	      1.04736240	      0.93686716	     -0.02503544	      1.40284617	      2.72164646	    -13.54312535	    -14.35214964	     10.76452632	      1.44923678	      4.02602627	     -3.09994839	     -5.53621367	    -19.84654936	     12.56352584	     -0.79251631	     -7.36858691	     -0.23933778	     -6.08850310
      0.13000000	      0.90898904	     -1.60613055	      2.21211150	      1.04724402	      0.93684820	     -0.02489733	      1.40818628	      2.74614629	    -13.56542121	    -14.37103155	     10.76564226	      1.44662167	      4.05731782	     -3.13003611	     -5.50672301	    -19.90433661	     12.57264319	     -0.78381066	     -7.39772968	     -0.24065969	     -6.07394113
      0.14000000	      0.90695845	     -1.64467091	      2.25647240	      1.04713556	      0.93679980	     -0.02479977	      1.42130596	      2.79452418	    -13.62631521	    -14.37895314	     10.76302903	      1.43777099	      4.11468888	     -3.18656757	     -5.46956853	    -19.97712966	     12.61434678	     -0.75399114	     -7.40797457	     -0.21142321	     -6.11020382
      0.15000000	      0.91935815	     -1.65025229	      2.27822534	      1.04701387	      0.93678878	     -0.02468203	      1.42649396	      2.80867217	    -13.62456866	    -14.40122024	     10.75994220	      1.43575396	      4.13554784	     -3.20348441	     -5.43896542	    -20.01694119	     12.61597525	     -0.74783524	     -7.43974978	     -0.22553734	     -6.10084812
      0.16000000	      0.93265742	     -1.66585513	      2.30655494	      1.04686202	      0.93677560	     -0.02458102	      1.43446485	      2.83184176	    -13.64401056	    -14.42520936	     10.76055661	      1.43219315	      4.16356514	     -3.23140369	     -5.40385951	    -20.06615480	     12.62544142	     -0.73651058	     -7.47880071	     -0.22600269	     -6.11247096
      0.17000000	      0.94597840	     -1.67995480	      2.34955521	      1.04671611	      0.93675890	     -0.02451958	      1.44079161	      2.85259095	    -13.67087359	    -14.45005333	     10.76113042	      1.42752864	      4.19250739	     -3.25684169	     -5.36964723	    -20.11380561	     12.63882738	     -0.72324829	     -7.51166825	     -0.22703150	     -6.13106960
      0.18000000	      0.94275055	     -1.69923640	      2.40640664	      1.04656259	      0.93671832	     -0.02448960	      1.45899594	      2.87599704	    -13.74743089	    -14.46079277	     10.76566792	      1.41546742	      4.23881942	     -3.28527047	     -5.32147786	    -20.15416357	     12.66523985	     -0.69277043	     -7.52577608	     -0.21927969	     -6.18292479
      0.19000000	      0.95221724	     -1.70019478	      2.43069422	      1.04638475	      0.93670744	     -0.02442649	      1.47181600	      2.88199724	    -13.75021319	    -14.48431342	     10.76420715	      1.41257438	      4.25792186	     -3.29337899	     -5.30396788	    -20.17728010	     12.66503991	     -0.68779809	     -7.55786075	     -0.23725625	     -6.18319090
      0.20000000	      0.95779509	     -1.70131447	      2.45771604	      1.04616958	      0.93668533	     -0.02438959	      1.49455026	      2.88284389	    -13.79113462	    -14.51249506	     10.76772980	      1.40595035	      4.28872446	     -3.30050761	     -5.28447346	    -20.21021942	     12.66849548	     -0.67794634	     -7.59308705	     -0.24868883	     -6.19848421
      0.21000000	      0.95739501	     -1.70281887	      2.46863152	      1.04599731	      0.93666983	     -0.02433204	      1.50588985	      2.89015134	    -13.79648023	    -14.50924585	     10.76856241	      1.40557090	      4.29959914	     -3.30727042	     -5.28607187	    -20.20182717	     12.66958300	     -0.67724349	     -7.60948032	     -0.26424345	     -6.19836651
      0.22000000	      0.93626322	     -1.69966571	      2.51621997	      1.04577346	      0.93660113	     -0.02435894	      1.56492176	      2.87528739	    -13.91942254	    -14.55644899	     10.77949393	      1.38464083	      4.36897281	     -3.30643405	     -5.25891408	    -20.24497944	     12.67244030	     -0.65593332	     -7.60634352	     -0.27962400	     -6.24232936
      0.23000000	      0.92806952	     -1.69467590	      2.52548616	      1.04555765	      0.93657505	     -0.02433227	      1.58582603	      2.87249219	    -13.93781056	    -14.55077499	     10.77788941	      1.37823338	      4.40209150	     -3.30253776	     -5.24808781	    -20.25998790	     12.66999423	     -0.65167953	     -7.61841445	     -0.30070855	     -6.22780570
      0.24000000	      0.92679367	     -1.69592037	      2.52754920	      1.04535959	      0.93656591	     -0.02431106	      1.59808360	      2.87698029	    -13.94363241	    -14.54426955	     10.77786383	      1.37744781	      4.41366698	     -3.30500404	     -5.25033382	    -20.25148303	     12.67013010	     -0.65132899	     -7.63350028	     -0.31117310	     -6.22779787
